<svg width="83" height="67" viewBox="0 0 83 67" fill="none" xmlns="http://www.w3.org/2000/svg">

<path d="M24.085 55.44C23.988 56.267 23.682 56.906 23.167 57.357C22.654 57.805 21.972 58.028 21.12 58.028C20.196 58.028 19.455 57.697 18.896 57.035C18.341 56.372 18.064 55.486 18.064 54.376V53.624C18.064 52.897 18.193 52.258 18.451 51.707C18.712 51.155 19.081 50.733 19.557 50.439C20.033 50.142 20.585 49.993 21.211 49.993C22.042 49.993 22.708 50.226 23.209 50.692C23.711 51.153 24.003 51.794 24.085 52.614H23.048C22.959 51.991 22.764 51.54 22.463 51.261C22.166 50.982 21.749 50.842 21.211 50.842C20.553 50.842 20.035 51.085 19.659 51.572C19.287 52.059 19.101 52.752 19.101 53.651V54.408C19.101 55.257 19.278 55.932 19.632 56.433C19.987 56.935 20.483 57.185 21.12 57.185C21.693 57.185 22.132 57.056 22.436 56.798C22.744 56.537 22.948 56.084 23.048 55.44H24.085ZM29.816 55.88H26.54L25.804 57.921H24.74L27.727 50.101H28.629L31.621 57.921H30.562L29.816 55.88ZM26.851 55.031H29.51L28.178 51.374L26.851 55.031ZM29.827 49.478V49.531H29.005L28.199 48.618L27.399 49.531H26.577V49.467L27.898 48.006H28.5L29.827 49.478ZM34.005 50.101L36.562 56.482L39.119 50.101H40.456V57.921H39.425V54.876L39.521 51.588L36.954 57.921H36.165L33.603 51.605L33.705 54.876V57.921H32.673V50.101H34.005ZM46.697 54.306H43.308V57.078H47.245V57.921H42.277V50.101H47.191V50.949H43.308V53.463H46.697V54.306ZM51.397 54.757H49.56V57.921H48.523V50.101H51.112C51.993 50.101 52.67 50.301 53.143 50.702C53.619 51.103 53.857 51.687 53.857 52.453C53.857 52.94 53.724 53.365 53.459 53.726C53.198 54.088 52.833 54.358 52.364 54.537L54.201 57.857V57.921H53.094L51.397 54.757ZM49.56 53.914H51.145C51.657 53.914 52.063 53.782 52.364 53.517C52.668 53.252 52.82 52.897 52.82 52.453C52.82 51.97 52.675 51.599 52.385 51.341C52.099 51.084 51.683 50.953 51.139 50.949H49.56V53.914ZM59.625 55.88H56.349L55.613 57.921H54.55L57.536 50.101H58.438L61.43 57.921H60.372L59.625 55.88ZM56.661 55.031H59.319L57.987 51.374L56.661 55.031Z" fill="white"/>

<path d="M24.085 55.519C23.988 56.346 23.682 56.985 23.167 57.436C22.654 57.884 21.972 58.107 21.12 58.107C20.196 58.107 19.455 57.776 18.896 57.114C18.341 56.451 18.064 55.565 18.064 54.455V53.703C18.064 52.976 18.193 52.337 18.451 51.786C18.712 51.234 19.081 50.812 19.557 50.518C20.033 50.221 20.585 50.072 21.211 50.072C22.042 50.072 22.708 50.305 23.209 50.771C23.711 51.232 24.003 51.873 24.085 52.693H23.048C22.959 52.07 22.764 51.619 22.463 51.34C22.166 51.061 21.749 50.921 21.211 50.921C20.553 50.921 20.035 51.164 19.659 51.651C19.287 52.138 19.101 52.831 19.101 53.73V54.487C19.101 55.336 19.278 56.011 19.632 56.512C19.987 57.014 20.483 57.264 21.12 57.264C21.693 57.264 22.132 57.135 22.436 56.877C22.744 56.616 22.948 56.163 23.048 55.519H24.085ZM29.816 55.959H26.54L25.804 58H24.74L27.727 50.18H28.629L31.621 58H30.562L29.816 55.959ZM26.851 55.11H29.51L28.178 51.453L26.851 55.11ZM29.827 49.557V49.61H29.005L28.199 48.697L27.399 49.61H26.577V49.546L27.898 48.085H28.5L29.827 49.557ZM34.005 50.18L36.562 56.561L39.119 50.18H40.456V58H39.425V54.955L39.521 51.667L36.954 58H36.165L33.603 51.684L33.705 54.955V58H32.673V50.18H34.005ZM46.697 54.385H43.308V57.157H47.245V58H42.277V50.18H47.191V51.028H43.308V53.542H46.697V54.385ZM51.397 54.836H49.56V58H48.523V50.18H51.112C51.993 50.18 52.67 50.38 53.143 50.781C53.619 51.182 53.857 51.766 53.857 52.532C53.857 53.019 53.724 53.444 53.459 53.805C53.198 54.167 52.833 54.437 52.364 54.616L54.201 57.936V58H53.094L51.397 54.836ZM49.56 53.993H51.145C51.657 53.993 52.063 53.861 52.364 53.596C52.668 53.331 52.82 52.976 52.82 52.532C52.82 52.049 52.675 51.678 52.385 51.42C52.099 51.163 51.683 51.032 51.139 51.028H49.56V53.993ZM59.625 55.959H56.349L55.613 58H54.55L57.536 50.18H58.438L61.43 58H60.372L59.625 55.959ZM56.661 55.11H59.319L57.987 51.453L56.661 55.11Z" fill="white"/>

<path d="M40 13.051C37.983 13.051 36.011 13.644 34.333 14.755C32.656 15.866 31.349 17.445 30.577 19.293C29.805 21.141 29.603 23.174 29.996 25.135C30.39 27.096 31.361 28.898 32.788 30.312C34.214 31.726 36.032 32.689 38.01 33.079C39.989 33.469 42.04 33.269 43.903 32.504C45.767 31.738 47.36 30.442 48.481 28.78C49.601 27.117 50.2 25.162 50.2 23.162C50.197 20.482 49.121 17.912 47.209 16.016C45.297 14.121 42.704 13.054 40 13.051ZM40 30.737C38.489 30.737 37.012 30.292 35.755 29.46C34.499 28.628 33.519 27.445 32.941 26.061C32.363 24.677 32.211 23.154 32.506 21.685C32.801 20.215 33.529 18.866 34.597 17.806C35.666 16.747 37.027 16.026 38.509 15.734C39.992 15.441 41.528 15.591 42.924 16.165C44.32 16.738 45.513 17.709 46.353 18.954C47.193 20.2 47.641 21.664 47.641 23.162C47.638 25.17 46.833 27.096 45.4 28.515C43.968 29.935 42.026 30.734 40 30.737Z" fill="white"/>
<path d="M58.686 6.328H50.32L49.2 4.79099C48.796 4.23699 48.265 3.78601 47.652 3.47501C47.038 3.16401 46.358 3.001 45.669 3H34.334C33.644 3.001 32.964 3.16301 32.35 3.47501C31.736 3.78601 31.205 4.23699 30.8 4.79099L29.683 6.328H21.314C19.905 6.329 18.554 6.88501 17.558 7.87201C16.562 8.86001 16.002 10.198 16 11.595V34.733C16 36.13 16.56 37.471 17.556 38.459C18.552 39.448 19.904 40.004 21.314 40.006H58.686C60.095 40.004 61.446 39.449 62.442 38.461C63.438 37.474 63.998 36.135 64 34.739V11.595C63.999 10.198 63.439 8.859 62.443 7.871C61.446 6.884 60.095 6.328 58.686 6.328ZM61.441 34.733C61.44 35.456 61.15 36.15 60.633 36.662C60.117 37.173 59.416 37.46 58.686 37.46H21.314C20.584 37.46 19.884 37.172 19.368 36.661C18.851 36.149 18.561 35.456 18.559 34.733V11.595C18.56 10.871 18.85 10.177 19.367 9.66501C19.883 9.15301 20.583 8.86501 21.314 8.86401H30.992L32.877 6.28299C33.043 6.05299 33.262 5.86599 33.515 5.73599C33.769 5.60699 34.049 5.53799 34.334 5.53699H45.669C45.953 5.53899 46.233 5.607 46.486 5.737C46.739 5.867 46.957 6.05399 47.123 6.28299L49.008 8.87H58.686C59.048 8.87 59.406 8.941 59.741 9.078C60.075 9.215 60.378 9.41601 60.634 9.67001C60.89 9.92401 61.093 10.225 61.231 10.556C61.37 10.887 61.441 11.242 61.441 11.601V34.733Z" fill="white"/>
<path d="M25.489 12.389H23.424C22.832 12.389 22.352 12.864 22.352 13.451V15.498C22.352 16.085 22.832 16.561 23.424 16.561H25.489C26.081 16.561 26.561 16.085 26.561 15.498V13.451C26.561 12.864 26.081 12.389 25.489 12.389Z" fill="white"/>
</svg>
