<svg width="163" height="143" viewBox="0 0 163 143" fill="none" xmlns="http://www.w3.org/2000/svg">
<path d="M57.136 58.4229C56.611 58.4249 56.092 58.3139 55.615 58.0959C55.138 57.8779 54.713 57.558 54.37 57.16C54.027 56.761 53.774 56.2929 53.629 55.7869C53.484 55.2809 53.45 54.7489 53.528 54.2289L58.992 15.1053H37.589L30.711 61.9629C30.655 62.3649 30.685 62.7739 30.8 63.1619C30.914 63.5509 31.111 63.911 31.376 64.216C31.641 64.522 31.969 64.7669 32.336 64.9349C32.704 65.1029 33.103 65.1899 33.507 65.1889H109.832C110.552 65.2049 111.253 64.9559 111.804 64.4899C112.354 64.0239 112.716 63.3719 112.821 62.6569L113.448 58.382L57.136 58.4229Z" fill="#1D71B8"/>
<path d="M55.127 125.572C55.149 126.768 54.927 127.957 54.477 129.064C54.073 130.045 53.459 130.923 52.677 131.637C51.875 132.363 50.931 132.912 49.905 133.25C48.8 133.612 47.645 133.794 46.482 133.79H34.431V105.966H45.92C47.582 105.919 49.233 106.262 50.741 106.966C52.011 107.576 53.063 108.565 53.753 109.797C54.449 111.094 54.797 112.55 54.766 114.023C54.806 115.237 54.46 116.432 53.778 117.434C53.226 118.249 52.531 118.957 51.729 119.523C52.664 120.084 53.482 120.821 54.139 121.693C54.879 122.844 55.226 124.206 55.127 125.572ZM47.896 114.354C47.916 113.761 47.709 113.184 47.318 112.741C47.071 112.502 46.777 112.319 46.454 112.203C46.131 112.088 45.788 112.043 45.446 112.071H41.228V116.596H45.47C45.809 116.622 46.15 116.576 46.469 116.46C46.789 116.345 47.081 116.163 47.326 115.926C47.713 115.495 47.925 114.934 47.921 114.354H47.896ZM48.298 125.177C48.314 124.553 48.102 123.945 47.704 123.467C47.46 123.215 47.164 123.021 46.835 122.899C46.507 122.778 46.156 122.732 45.808 122.765H41.228V127.604H45.832C46.181 127.635 46.532 127.586 46.859 127.46C47.186 127.335 47.481 127.136 47.72 126.879C48.118 126.402 48.331 125.798 48.322 125.177H48.298Z" fill="#1D71B8"/>
<path d="M80.387 124.007C80.398 125.393 80.125 126.766 79.584 128.04C79.06 129.266 78.282 130.366 77.302 131.266C76.316 132.157 75.168 132.847 73.919 133.298C72.613 133.767 71.234 134.002 69.846 133.992C68.03 134.006 66.238 133.586 64.616 132.766C63.039 131.971 61.715 130.75 60.791 129.242C59.843 127.664 59.359 125.85 59.394 124.007V105.95H66.207V123.854C66.141 124.938 66.492 126.006 67.187 126.838C67.531 127.203 67.95 127.488 68.414 127.675C68.879 127.862 69.378 127.945 69.878 127.919C70.565 127.931 71.243 127.765 71.847 127.435C72.415 127.119 72.872 126.635 73.156 126.048C73.478 125.363 73.635 124.611 73.614 123.854V105.95H80.419L80.387 124.007Z" fill="#1D71B8"/>
<path d="M103.984 133.774H85.505V105.95H92.31V127.685H103.984V133.774Z" fill="#1D71B8"/>
<path d="M130.577 133.774H123.467L122.173 129.637H113.625L112.275 133.774H105.141L115.232 105.95H120.502L130.577 133.774ZM120.39 123.927L118.052 116.507L115.561 123.927H120.39Z" fill="#1D71B8"/>
<path d="M14 99.9661V72.1331H31.209V74.7951H16.957V84.6021H29.104V87.2631H16.957V97.3041H31.209V99.9661H14Z" fill="#36A9E1"/>
<path d="M49.23 99.9661L42.497 88.2631L35.692 99.9661H32.374L40.867 85.6991L32.921 72.1331H36.351L42.497 83.1101L48.652 72.1331H52.074L44.096 85.6991L52.661 99.9661H49.23Z" fill="#36A9E1"/>
<path d="M66.014 88.5131H58.654V99.9661H55.698V72.1331H66.014C71.043 72.1331 74.578 75.303 74.578 80.303C74.578 85.303 71.043 88.5131 66.014 88.5131ZM65.741 74.8031H58.654V85.844H65.741C69.203 85.844 71.622 83.9731 71.622 80.2951C71.622 76.6171 69.203 74.7951 65.741 74.7951V74.8031Z" fill="#36A9E1"/>
<path d="M78.668 99.9661V72.1331H81.624V97.2961H95.797V99.958L78.668 99.9661Z" fill="#36A9E1"/>
<path d="M99.42 99.9661V72.1331H102.377V99.958L99.42 99.9661Z" fill="#36A9E1"/>
<path d="M117.481 100.199C116.168 100.214 114.864 99.965 113.648 99.468C112.431 98.971 111.325 98.235 110.395 97.304C107.784 94.691 107.784 91.949 107.784 86.053C107.784 80.158 107.784 77.416 110.395 74.762C111.325 73.831 112.431 73.096 113.648 72.598C114.864 72.101 116.168 71.853 117.481 71.867C122.462 71.867 126.158 74.916 127.122 80.158H124.069C123.33 76.754 120.952 74.512 117.489 74.512C116.596 74.497 115.71 74.662 114.882 74.997C114.054 75.333 113.301 75.831 112.669 76.464C110.917 78.263 110.724 80.182 110.724 86.005C110.724 91.828 110.917 93.739 112.669 95.538C113.301 96.171 114.054 96.669 114.882 97.005C115.71 97.34 116.596 97.505 117.489 97.49C120.952 97.49 123.402 95.264 124.142 91.844H127.106C126.198 97.135 122.462 100.199 117.481 100.199Z" fill="#36A9E1"/>
<path d="M147.851 99.9661L145.625 93.6751H133.517L131.3 99.9661H128.151L138.346 72.1331H140.837L151 99.958L147.851 99.9661ZM139.632 76.4001L134.417 91.094H144.773L139.632 76.4001Z" fill="#36A9E1"/>
<path d="M57.136 58.4229C56.611 58.4249 56.093 58.3139 55.615 58.0959C55.138 57.8779 54.713 57.558 54.37 57.16C54.027 56.761 53.774 56.2929 53.629 55.7869C53.484 55.2809 53.45 54.7489 53.529 54.2289L58.992 15.1053H37.589L53.255 56.6639C53.522 57.3749 53.997 57.9869 54.619 58.4189C55.24 58.8519 55.978 59.0829 56.734 59.0839H125.025L125.21 58.382L57.136 58.4229Z" fill="#36A9E1"/>
<path d="M57.136 58.423C56.611 58.425 56.093 58.314 55.615 58.096C55.138 57.878 54.713 57.558 54.37 57.16C54.027 56.761 53.774 56.293 53.629 55.787C53.484 55.281 53.45 54.749 53.529 54.229L59.675 9.87125C59.8 8.99975 60.233 8.20245 60.896 7.62505C61.558 7.04765 62.405 6.72845 63.282 6.72585H136.715C137.236 6.72425 137.751 6.83505 138.225 7.05065C138.699 7.26625 139.122 7.58175 139.464 7.97565C139.806 8.36955 140.06 8.83275 140.208 9.33375C140.356 9.83475 140.395 10.3618 140.322 10.8793L134.168 55.237C134.046 56.109 133.615 56.907 132.954 57.484C132.293 58.062 131.446 58.381 130.569 58.382L57.136 58.423Z" fill="white"/>
<path d="M136.715 7.4194C137.136 7.4201 137.552 7.5112 137.934 7.6865C138.317 7.8618 138.658 8.11731 138.934 8.43591C139.211 8.75451 139.416 9.1287 139.536 9.5335C139.656 9.9382 139.689 10.3641 139.632 10.7826L133.485 55.14C133.385 55.846 133.035 56.491 132.5 56.959C131.964 57.427 131.279 57.686 130.569 57.689H57.136C56.715 57.689 56.298 57.599 55.915 57.424C55.531 57.249 55.19 56.994 54.913 56.675C54.637 56.356 54.432 55.981 54.312 55.576C54.192 55.171 54.161 54.744 54.219 54.326L60.366 9.968C60.466 9.2625 60.816 8.6167 61.351 8.1488C61.887 7.6809 62.572 7.422 63.282 7.4194H136.715ZM136.715 6.0242H63.282C62.236 6.026 61.225 6.4073 60.437 7.0979C59.648 7.7886 59.135 8.742 58.992 9.7825L52.846 54.14C52.761 54.757 52.808 55.384 52.985 55.981C53.162 56.577 53.465 57.129 53.872 57.598C54.28 58.067 54.782 58.443 55.347 58.701C55.911 58.959 56.524 59.092 57.144 59.092H130.577C131.622 59.091 132.632 58.71 133.42 58.021C134.208 57.332 134.722 56.381 134.867 55.342L141.013 10.9842C141.103 10.3652 141.06 9.734 140.885 9.1336C140.71 8.5332 140.408 7.9776 140.001 7.5046C139.593 7.0317 139.088 6.6525 138.521 6.3929C137.954 6.1332 137.338 5.9992 136.715 6V6.0242Z" fill="#36A9E1"/>
<path d="M138.017 32.3565H97.154L100.794 6.0565L100.408 6L96.753 32.3565H55.826V32.7517H96.697L93.049 59.052L93.443 59.108L97.098 32.7517H138.017V32.3565Z" fill="#36A9E1"/>
<path d="M87.618 22.9367L85.272 42.0507C85.228 42.387 85.277 42.7291 85.415 43.0389C85.552 43.3487 85.773 43.6142 86.051 43.8062C86.33 43.9982 86.656 44.1092 86.993 44.1268C87.331 44.1443 87.666 44.0678 87.963 43.9057L109.23 34.3566C110.837 33.6227 111.15 31.3969 109.688 30.6549L90.759 21.114C90.435 20.98 90.085 20.9226 89.735 20.9461C89.385 20.9695 89.045 21.0732 88.742 21.2493C88.438 21.4254 88.179 21.6692 87.984 21.9618C87.789 22.2543 87.664 22.5878 87.618 22.9367Z" fill="#E30613"/>
</svg>
